<svg xmlns="http://www.w3.org/2000/svg" version="1.1" xmlns:xlink="http://www.w3.org/1999/xlink" width="512" height="512" x="0" y="0" viewBox="0 0 512 512" style="enable-background:new 0 0 512 512" xml:space="preserve" class=""><g><path d="M217 161c22.135-8.56 42.06-33 79.822-33 50.189 0 87.754 40.916 87.172 91.12-.83 71.601-36.309 195.291-71.77 255.914-6.939 13.11-17.192 16.966-27.753 16.966-17.03 0-27.753-12.339-32.362-32.39C242.841 423.364 243.099 350 202 350s-40.842 73.364-50.109 109.61C147.282 479.661 136.56 492 119.529 492c-10.562 0-20.815-3.856-27.753-16.966C56.315 414.41 20.837 290.72 20.007 219.12 19.588 183.031 39.475 151.741 69 137M379 37c-206 0-263 99-263 284M477 50h-82c-8.284 0-15-6.716-15-15v0c0-8.284 6.716-15 15-15h82c8.284 0 15 6.716 15 15v0c0 8.284-6.716 15-15 15" style="stroke-width:40;stroke-linecap:round;stroke-linejoin:round;stroke-miterlimit:10" fill="none" stroke="#121e41" stroke-width="40" stroke-linecap="round" stroke-linejoin="round" stroke-miterlimit="1" data-original="#000000" class="" opacity="1"></path></g></svg>